<?xml version="1.0" standalone="no"?>
<!DOCTYPE svg PUBLIC "-//W3C//DTD SVG 20010904//EN"
 "http://www.w3.org/TR/2001/REC-SVG-20010904/DTD/svg10.dtd">
<svg version="1.0" xmlns="http://www.w3.org/2000/svg"
 width="512.000000pt" height="512.000000pt" viewBox="0 0 512.000000 512.000000"
 preserveAspectRatio="xMidYMid meet">

<g transform="translate(0.000000,512.000000) scale(0.100000,-0.100000)"
fill="#000000" stroke="none">
<path d="M1192 3635 c-397 -134 -830 -431 -999 -684 -87 -131 -127 -292 -105
-421 51 -299 289 -489 757 -605 285 -70 512 -94 955 -101 361 -6 413 -2 418
34 2 12 -3 24 -10 26 -7 3 -85 10 -173 16 -706 50 -1153 245 -1158 508 -3 135
104 248 351 371 54 27 104 57 111 65 20 24 20 804 0 817 -22 14 -37 11 -147
-26z"/>
<path d="M2980 3652 c-49 -5 -66 -11 -68 -24 -4 -20 23 -24 198 -33 440 -23
862 -148 1035 -307 100 -91 136 -217 90 -311 -45 -94 -167 -195 -335 -276
-134 -66 -122 -17 -122 -472 l-1 -394 49 1 c98 3 422 149 624 281 340 223 531
443 568 653 15 87 14 153 -3 226 -83 359 -474 560 -1240 639 -160 17 -687 27
-795 17z"/>
<path d="M3224 2903 c-17 -10 -169 -112 -338 -228 -208 -142 -313 -219 -323
-238 -12 -24 -13 -46 -4 -135 31 -305 40 -757 21 -966 -26 -274 -97 -466 -195
-526 -105 -65 -199 -35 -294 94 -68 92 -123 211 -196 426 -34 101 -46 125 -61
125 -17 0 -19 -7 -17 -60 3 -79 45 -306 78 -420 85 -293 198 -457 375 -543
317 -155 629 9 841 443 150 307 225 622 270 1124 13 146 6 687 -10 800 -14
100 -77 144 -147 104z"/>
</g>
</svg>
